<svg xmlns="http://www.w3.org/2000/svg" viewBox="0 0 64 64">
  <defs>
    <linearGradient id="g" x1="0" x2="1" y1="0" y2="1">
      <stop offset="0%" stop-color="#6366F1"/>
      <stop offset="50%" stop-color="#8B5CF6"/>
      <stop offset="100%" stop-color="#EC4899"/>
    </linearGradient>
    <filter id="shadow" x="-20%" y="-20%" width="140%" height="140%" filterUnits="objectBoundingBox">
      <feDropShadow dx="0" dy="2" stdDeviation="3" flood-color="#000" flood-opacity="0.25"/>
    </filter>
  </defs>
  <rect rx="16" ry="16" width="64" height="64" fill="url(#g)"/>
  <g filter="url(#shadow)">
    <path fill="#fff" fill-rule="evenodd" d="M18 20c0-2.21 1.79-4 4-4h20c2.21 0 4 1.79 4 4v12c0 2.21-1.79 4-4 4h-8.6L24 48v-12h-2c-2.21 0-4-1.79-4-4V20Zm8 3a2 2 0 1 0 0 4h12a2 2 0 1 0 0-4H26Zm-2 9a2 2 0 1 1 4 0 2 2 0 0 1-4 0Zm10 0a2 2 0 1 0 0-4 2 2 0 0 0 0 4Z" clip-rule="evenodd"/>
  </g>
</svg>
